OpenSim_Sub07_EMGStiffKnee_GRF.mot
version=1
nRows=64
nColumns=19
inDegrees=no
endheader
time	lFx	lFy	lFz	lCOPx	lCOPy	lCOPz	rFx	rFy	rFz	rCOPx	rCOPy	rCOPz	lMx	lMy	lMz	rMx	rMy	rMz
18.47000000	-1.94748026	-0.08013838	-2.17393050	-0.00000005	0	0.00000007	0.19996175	731.77404386	-36.34683881	0.59898182	0	-0.43072349	0	0.00000025	0	0	-1.29965059	0
18.48000000	-1.93224438	-0.04557699	-2.11464001	-0.00000007	0	0.00000007	3.18702823	735.00002097	-35.02690774	0.59133935	0	-0.43161858	0	0.00000019	0	0	-0.94770487	0.00000000
18.49000000	-1.93052010	0.07795907	-2.06613065	-0.00000008	0	0.00000007	6.08156460	737.63439263	-33.71699491	0.58388541	0	-0.43241953	0	-0.00000007	0	0	-0.63928572	0
18.50000000	-1.94758335	0.22401250	-2.03470551	-0.00000009	0	0.00000008	9.12189710	739.54787131	-32.79694678	0.57645504	0	-0.43304420	0	-0.00000062	0	0	-0.38390748	-0.00000000
18.51000000	-1.97748684	0.30185114	-2.01105628	-0.00000001	0	0.00000001	12.31570597	740.89958855	-32.50563281	0.56905831	0	-0.43344374	0	-0.00000146	0	0	-0.14187160	0
18.52000000	-1.97530079	0.34354720	-1.96209127	0.00000028	0	-0.00000024	15.37308792	742.07121866	-32.86703678	0.56187060	0	-0.43359661	0	-0.00000206	0	0	0.08198491	0.00000000
18.53000000	-1.95847036	0.38314031	-1.89733943	0.00000092	0	-0.00000077	18.14967331	742.97129980	-33.70048739	0.55513924	0	-0.43349533	0	-0.00000076	0	0	0.24668727	0.00000000
18.54000000	-1.96922346	0.44860814	-1.88497755	0.00000174	0	-0.00000145	20.81715561	742.94693592	-34.82558218	0.54885995	0	-0.43319890	0	0.00000547	0	0	0.35881975	-0.00000000
18.55000000	-1.99516816	0.48258537	-1.87343700	0.00000185	0	-0.00000152	23.50655704	741.55067654	-36.03468029	0.54309489	0	-0.43277214	0	0.00001962	0	0	0.40665387	0.00000000
18.56000000	-2.01660718	0.45598368	-1.85234583	-0.00000096	0	0.00000086	26.05591570	738.70318945	-37.05284388	0.53778060	0	-0.43227769	0	0.00003925	0	0	0.34933419	0
18.57000000	-2.03755620	0.41738000	-1.84406722	-0.00000993	0	0.00000837	28.34808999	734.53808925	-37.79223375	0.53276082	0	-0.43177172	0	0.00004567	0	0	0.28644739	0
18.58000000	-2.04525436	0.41606237	-1.84267736	-0.00002676	0	0.00002237	30.30629720	729.39007558	-38.26630155	0.52781274	0	-0.43124001	0	-0.00000913	0	0	0.33661288	0
18.59000000	-2.02831584	0.36164390	-1.88885816	-0.00004418	0	0.00003666	32.11010986	723.89717836	-38.39622148	0.52283325	0	-0.43065763	0	-0.00020109	0	0	0.44997003	0
18.60000000	-2.00085939	0.28619236	-1.93722933	-0.00003369	0	0.00002734	33.84077205	718.81671776	-38.26279031	0.51787415	0	-0.43005433	0	-0.00058051	0	0	0.56764602	-0.00000000
18.61000000	-1.97161244	0.29457571	-1.98486549	0.00006449	0	-0.00005540	35.44417461	714.41352806	-38.06449015	0.51308071	0	-0.42946287	0	-0.00101319	0	0	0.69630064	-0.00000000
18.62000000	-1.96915354	0.35656139	-2.03247682	0.00032501	0	-0.00027313	36.80901423	710.41520349	-37.95467389	0.50864204	0	-0.42885306	0	-0.00089798	0	0	0.81203734	0
18.63000000	-1.97989353	0.41867110	-2.03005323	0.00074960	0	-0.00062539	38.03954699	706.42832782	-37.99442459	0.50458221	0	-0.42817213	0	0.00109512	0	0	0.85946965	0
18.64000000	-1.95998613	0.50112852	-2.00780183	0.00106054	0	-0.00087732	39.06625987	702.22497571	-38.18156565	0.50091459	0	-0.42741268	0	0.00675485	0	0	0.87633498	0
18.65000000	-1.89798634	0.48607745	-2.02240170	0.00040166	0	-0.00031220	39.73477643	697.63800957	-38.46584859	0.49751071	0	-0.42663310	0	0.01650958	0	0	0.91144609	-0.00000000
18.66000000	-1.79508600	0.07140149	-2.09780956	-0.00279284	0	0.00237172	40.03294048	692.87535372	-38.76209224	0.49445581	0	-0.42584430	0	0.02488696	0	0	0.93793712	0
18.67000000	-1.73982237	-0.92782353	-2.19569685	-0.01006594	0	0.00843860	40.29480528	688.41307372	-38.91264962	0.49154946	0	-0.42507722	0	0.01352343	0	0	0.94395336	0
18.68000000	-2.09666754	-2.26627342	-2.21356834	-0.02020023	0	0.01681924	40.83857166	685.00535985	-38.80838942	0.48857624	0	-0.42438328	0	-0.05300206	0	0	0.98782069	0.00000000
18.69000000	-3.59218104	-2.80967498	-1.96460132	-0.02362087	0	0.01944958	41.98474964	683.55830276	-38.48334011	0.48539763	0	-0.42381399	0	-0.21340527	0	0	1.06152064	-0.00000000
18.70000000	-6.94145221	0.38441268	-1.30094314	0.00434388	0	-0.00428298	44.06987676	684.53913277	-38.02440885	0.48177774	0	-0.42341845	0	-0.45179996	0	0	1.12872187	0
18.71000000	-11.56456996	12.19667605	-0.26602764	0.10285486	0	-0.08685154	47.21711127	686.93861753	-37.51938515	0.47750830	0	-0.42319266	0	-0.57278664	0	0	1.21823114	0
18.72000000	-13.49208133	37.36120711	0.45883672	0.29814741	0	-0.24942639	51.20514451	688.04750152	-36.96178424	0.47274738	0	-0.42307508	0	-0.03890399	0	0	1.31734755	0
18.73000000	-7.80614504	79.42953602	-0.77929079	0.52885038	0	-0.44007278	55.80067617	684.66823271	-36.42593179	0.46777121	0	-0.42303211	0	2.08838582	0	0	1.40055093	-0.00000000
18.74000000	3.27996540	137.59933053	-4.96417800	0.67611265	0	-0.56480602	60.78011284	674.64609314	-35.84723066	0.46278454	0	-0.42306036	0	6.21120158	0	0	1.51296652	0
18.75000000	9.96469214	204.00266543	-8.40282738	0.72780378	0	-0.61453380	65.66350802	656.90340382	-34.79624821	0.45784996	0	-0.42314448	0	10.34959032	0	0	1.64628125	0
18.76000000	8.25826772	270.46637698	-8.64136897	0.72831059	0	-0.62154259	70.07753463	630.53870879	-32.77419924	0.45303957	0	-0.42327622	0	13.20922498	0	0	1.76716208	0
18.77000000	1.04627145	335.10963636	-5.19189051	0.71610037	0	-0.61476719	73.46402950	595.25850020	-29.42372260	0.44859738	0	-0.42346233	0	14.58465885	0	0	1.95996602	0
18.78000000	-9.38546363	398.27741524	2.08001394	0.70699551	0	-0.60839371	75.13683041	551.81358289	-24.64311154	0.44473136	0	-0.42366157	0	14.40633025	0	0	2.23078731	0
18.79000000	-20.54841666	456.51287913	11.35851569	0.70282784	0	-0.60587121	74.91856332	501.44004652	-18.94857298	0.44144695	0	-0.42388687	0	13.23758972	0	0	2.47274973	0
18.80000000	-29.77521853	503.71668454	20.45356753	0.70104322	0	-0.60614032	72.82906651	445.36847268	-13.10720524	0.43829259	0	-0.42425144	0	11.70251825	0	0	2.66147181	0
18.81000000	-36.94645741	537.61126264	28.70382095	0.69932340	0	-0.60764396	68.15152197	385.02262690	-7.49844616	0.43516601	0	-0.42500736	0	9.97714205	0	0	2.76913206	0
18.82000000	-42.80146785	562.52135026	36.53256956	0.69653889	0	-0.60946353	60.65445522	322.46742728	-2.63321400	0.43330982	0	-0.42658756	0	8.09387303	0	0	2.66358631	0
18.83000000	-46.82013339	586.11642717	43.97388519	0.69268852	0	-0.61110517	51.49788812	260.51557485	0.79094313	0.43411785	0	-0.42972400	0	6.30942451	0	0	2.26768188	0
18.84000000	-48.30480166	613.96198703	50.57653854	0.68806761	0	-0.61234532	41.46746589	202.53332588	2.23476230	0.43806466	0	-0.43518430	0	4.97422946	0	0	1.75489849	-0.00000000
18.85000000	-47.50318596	646.61059579	55.81528932	0.68299909	0	-0.61316947	30.09943015	151.88812781	1.63210503	0.44375218	0	-0.44171336	0	4.32615575	0	0	1.21068907	0
18.86000000	-45.24069306	680.17131781	59.42917043	0.67776256	0	-0.61362550	18.51187704	110.72024058	-0.34689977	0.44512556	0	-0.44259988	0	4.30985355	0	0	0.78702723	0
18.87000000	-42.21617864	709.75296736	61.68900275	0.67228513	0	-0.61375451	9.29252685	78.84330655	-2.35695966	0.42691304	0	-0.42210012	0	4.64966553	0	0	0.44952290	0
18.88000000	-38.90446287	732.51272707	63.03949922	0.66658590	0	-0.61363085	2.90501415	55.12607539	-3.43845487	0.36216046	0	-0.35751106	0	5.11890074	0	0	0.10918989	0
18.89000000	-35.63411493	747.80328732	63.60527075	0.66069089	0	-0.61332925	-1.09276955	37.80338883	-3.65584434	0.24003385	0	-0.23710149	0	5.61494332	0	0	-0.07193889	0.00000000
18.90000000	-32.68090366	756.27224145	63.52898567	0.65478779	0	-0.61290141	-3.17339531	24.74086982	-3.24170227	0.10500593	0	-0.10396327	0	6.06098885	0	0	-0.08635418	0
18.91000000	-29.97477556	758.78973047	62.88733840	0.64893329	0	-0.61240238	-3.82213027	14.61795879	-2.44079413	0.02140954	0	-0.02134218	0	6.49099828	0	0	-0.05068315	0
18.92000000	-27.20477529	756.66209091	62.03379930	0.64317329	0	-0.61190144	-3.14647407	6.87345398	-1.43115345	-0.01042150	0	0.01020086	0	6.83647921	0	0	-0.01811202	-0.00000000
18.93000000	-24.21298314	751.33724423	61.35555343	0.63739610	0	-0.61143140	-1.54296378	1.75671419	-0.34892932	-0.01405304	0	0.01385730	0	7.00092638	0	0	-0.00124451	-0.00000000
18.94000000	-21.03651626	744.13898003	60.93394900	0.63157523	0	-0.61101599	-0.28449713	-0.58111995	0.37032833	-0.00858804	0	0.00848832	0	7.04069418	0	0	0.00377260	-0.00000000
18.95000000	-17.95788521	736.07566379	60.76545832	0.62582429	0	-0.61066311	0.32068542	-1.12737196	0.50585276	-0.00322178	0	0.00319296	0	6.97371126	0	0	0.00337151	0.00000000
18.96000000	-15.03785193	727.19713927	60.60740881	0.62009575	0	-0.61035852	0.48324974	-0.91316977	0.50688939	-0.00033412	0	0.00033717	0	6.87195019	0	0	0.00172484	-0.00000000
18.97000000	-12.34928921	717.17442075	60.25630733	0.61441835	0	-0.61005586	0.45251658	-0.61691767	0.44093209	0.00058012	0	-0.00057006	0	6.73486417	0	0	0.00050227	0.00000000
18.98000000	-9.98419953	705.94582973	59.45477873	0.60885737	0	-0.60974941	0.36509720	-0.43266155	0.28318011	0.00055609	0	-0.00054878	0	6.61696824	0	0	-0.00004970	0.00000000
18.99000000	-8.04327512	694.15285557	58.21473122	0.60356189	0	-0.60945006	0.29332272	-0.28365594	0.22431933	0.00029560	0	-0.00029236	0	6.52877344	0	0	-0.00017255	0.00000000
19	-6.37404218	682.88819477	56.71831020	0.59853623	0	-0.60915565	0.25429068	-0.22880620	0.23652226	0.00009181	0	-0.00009112	0	6.49898075	0	0	-0.00012609	0.00000000
19.01000000	-4.74906283	673.35896769	55.13314160	0.59371523	0	-0.60889075	0.26681051	-0.32030535	0.22740144	-0.00000390	0	0.00000360	0	6.57275022	0	0	-0.00005621	-0.00000000
19.02000000	-3.11338692	666.39029482	53.64838828	0.58904249	0	-0.60865768	0.30042790	-0.42623194	0.21758607	-0.00002735	0	0.00002693	0	6.73969512	0	0	-0.00001209	-0.00000000
19.03000000	-1.63775864	662.29316775	52.46668476	0.58449406	0	-0.60846206	0.32856624	-0.50790275	0.19391755	-0.00002104	0	0.00002077	0	6.90161284	0	0	0.00000507	-0.00000000
19.04000000	-0.39033916	660.83213551	51.76259283	0.58007216	0	-0.60834152	0.34979759	-0.51891378	0.18254964	-0.00000976	0	0.00000966	0	6.95356310	0	0	0.00000727	0.00000000
19.05000000	0.72589530	661.47099376	51.52590839	0.57573474	0	-0.60835238	0.33736550	-0.46088232	0.25556645	-0.00000234	0	0.00000232	0	6.91550865	0	0	0.00000451	-0.00000000
19.06000000	1.78454853	663.78715281	51.61917720	0.57139588	0	-0.60849342	0.28045638	-0.43509987	0.34457347	0.00000065	0	-0.00000065	0	6.82642988	0	0	0.00000170	0.00000000
19.07000000	2.66569135	667.51059014	51.91065406	0.56716479	0	-0.60871532	0.21308690	-0.42278882	0.36704147	0.00000109	0	-0.00000111	0	6.70325308	0	0	0.00000020	0.00000000
19.08000000	3.28727106	672.44144314	52.26872914	0.56305513	0	-0.60896671	0.16990637	-0.39782297	0.34072608	0.00000071	0	-0.00000072	0	6.62075540	0	0	-0.00000017	-0.00000000
19.09000000	3.80202466	678.35613642	52.63953234	0.55893949	0	-0.60922615	0.15936861	-0.40961452	0.31974056	0.00000045	0	-0.00000037	0	6.61873495	0	0	0.00000012	-0.00000000
19.10000000	4.33146611	685.07343583	53.04894379	0.55474314	0	-0.60949325	0.20894664	-0.44925645	0.30664085	0.00000071	0	-0.00000039	0	6.63152558	0	0	0.00000062	-0.00000000
